<?xml version="1.0" encoding="UTF-8"?>
<!DOCTYPE svg PUBLIC "-//W3C//DTD SVG 1.1//EN" "http://www.w3.org/Graphics/SVG/1.1/DTD/svg11.dtd">
<svg xmlns="http://www.w3.org/2000/svg" version="1.1" width="62px" height="62px" style="shape-rendering:geometricPrecision; text-rendering:geometricPrecision; image-rendering:optimizeQuality; fill-rule:evenodd; clip-rule:evenodd" xmlns:xlink="http://www.w3.org/1999/xlink">
<g><path style="opacity:1" fill="#334a84" d="M 23.5,-0.5 C 28.5,-0.5 33.5,-0.5 38.5,-0.5C 40.2608,0.312714 41.9275,1.31271 43.5,2.5C 43.0618,2.43456 42.7284,2.60123 42.5,3C 43.1634,4.51845 44.1634,5.68512 45.5,6.5C 45.1788,8.04814 44.1788,8.71481 42.5,8.5C 42.7163,6.31928 41.883,4.65262 40,3.5C 39.5172,4.44802 39.3505,5.44802 39.5,6.5C 39.1667,7.5 38.5,8.16667 37.5,8.5C 34.5352,7.26647 31.5352,7.26647 28.5,8.5C 29.5981,7.60305 29.5981,6.76971 28.5,6C 29.9494,4.88298 31.6161,4.21631 33.5,4C 34.4506,3.28248 34.6172,2.44915 34,1.5C 30.3973,0.864848 26.8973,0.198181 23.5,-0.5 Z"/></g>
<g><path style="opacity:1" fill="#395195" d="M 22.5,-0.5 C 22.8333,-0.5 23.1667,-0.5 23.5,-0.5C 26.8973,0.198181 30.3973,0.864848 34,1.5C 34.6172,2.44915 34.4506,3.28248 33.5,4C 31.6161,4.21631 29.9494,4.88298 28.5,6C 29.5981,6.76971 29.5981,7.60305 28.5,8.5C 27.8333,8.83333 27.1667,9.16667 26.5,9.5C 25.8333,9.5 25.5,9.16667 25.5,8.5C 25.6107,7.88258 25.944,7.38258 26.5,7C 25.2341,6.69055 24.0674,6.19055 23,5.5C 23.7712,3.82001 23.6045,2.15335 22.5,0.5C 22.5,0.166667 22.5,-0.166667 22.5,-0.5 Z"/></g>
<g><path style="opacity:1" fill="#3f5084" d="M 22.5,0.5 C 23.6045,2.15335 23.7712,3.82001 23,5.5C 24.0674,6.19055 25.2341,6.69055 26.5,7C 25.944,7.38258 25.6107,7.88258 25.5,8.5C 23.1667,8.5 20.8333,8.5 18.5,8.5C 17.8333,8.16667 17.1667,7.83333 16.5,7.5C 16.5,5.5 15.5,4.5 13.5,4.5C 16.0878,2.3754 19.0878,1.04207 22.5,0.5 Z"/></g>
<g><path style="opacity:1" fill="#a79d8c" d="M 13.5,4.5 C 15.5,4.5 16.5,5.5 16.5,7.5C 15.5,7.5 14.5,7.5 13.5,7.5C 12.5,7.16667 11.8333,6.5 11.5,5.5C 11.8417,4.66175 12.5084,4.32842 13.5,4.5 Z"/></g>
<g><path style="opacity:1" fill="#374e84" d="M 37.5,8.5 C 37.1667,9.83333 36.8333,11.1667 36.5,12.5C 36.1667,12.5 35.8333,12.5 35.5,12.5C 35.1164,10.7074 33.9497,9.70743 32,9.5C 30.9895,9.89188 30.4895,10.5585 30.5,11.5C 29.5832,10.8728 28.5832,10.5394 27.5,10.5C 27.1667,10.5 26.8333,10.5 26.5,10.5C 26.5,10.1667 26.5,9.83333 26.5,9.5C 27.1667,9.16667 27.8333,8.83333 28.5,8.5C 31.5352,7.26647 34.5352,7.26647 37.5,8.5 Z"/></g>
<g><path style="opacity:1" fill="#252f51" d="M 43.5,2.5 C 47.0495,3.72316 50.0495,5.72316 52.5,8.5C 50.7839,8.62867 49.1172,8.962 47.5,9.5C 46.8333,8.5 46.1667,7.5 45.5,6.5C 44.1634,5.68512 43.1634,4.51845 42.5,3C 42.7284,2.60123 43.0618,2.43456 43.5,2.5 Z"/></g>
<g><path style="opacity:1" fill="#aea492" d="M 18.5,8.5 C 20.8333,8.5 23.1667,8.5 25.5,8.5C 25.5,9.16667 25.8333,9.5 26.5,9.5C 26.5,9.83333 26.5,10.1667 26.5,10.5C 24.0314,9.93287 21.698,9.93287 19.5,10.5C 19.1667,10.5 18.8333,10.5 18.5,10.5C 18.5,9.83333 18.5,9.16667 18.5,8.5 Z"/></g>
<g><path style="opacity:1" fill="#333f62" d="M 45.5,6.5 C 46.1667,7.5 46.8333,8.5 47.5,9.5C 47.5,10.1667 47.1667,10.5 46.5,10.5C 45.7784,10.9175 45.2784,11.5842 45,12.5C 43.6012,11.7734 42.1012,11.2734 40.5,11C 40.1286,9.39668 39.7952,7.89668 39.5,6.5C 39.3505,5.44802 39.5172,4.44802 40,3.5C 41.883,4.65262 42.7163,6.31928 42.5,8.5C 44.1788,8.71481 45.1788,8.04814 45.5,6.5 Z"/></g>
<g><path style="opacity:0.98" fill="#242528" d="M 11.5,5.5 C 11.8333,6.5 12.5,7.16667 13.5,7.5C 13.0478,10.6741 12.0478,11.0075 10.5,8.5C 9.61432,9.32496 9.28099,10.325 9.5,11.5C 7.03108,12.6067 6.03108,14.6067 6.5,17.5C 5.83333,16.1667 5.16667,14.8333 4.5,13.5C 6.09413,10.2358 8.42747,7.56913 11.5,5.5 Z"/></g>
<g><path style="opacity:1" fill="#2d2e2d" d="M 13.5,7.5 C 14.5,7.5 15.5,7.5 16.5,7.5C 17.1667,7.83333 17.8333,8.16667 18.5,8.5C 18.5,9.16667 18.5,9.83333 18.5,10.5C 18.6198,13.2048 17.6198,13.8715 15.5,12.5C 14.2613,12.9424 13.2613,13.6091 12.5,14.5C 12.5654,14.9382 12.3988,15.2716 12,15.5C 11.7216,14.5842 11.2216,13.9175 10.5,13.5C 10.1667,12.8333 9.83333,12.1667 9.5,11.5C 9.28099,10.325 9.61432,9.32496 10.5,8.5C 12.0478,11.0075 13.0478,10.6741 13.5,7.5 Z"/></g>
<g><path style="opacity:1" fill="#2f3130" d="M 26.5,10.5 C 26.8333,10.5 27.1667,10.5 27.5,10.5C 27.5,11.8333 27.5,13.1667 27.5,14.5C 25.4954,11.9722 23.8287,12.3055 22.5,15.5C 19.9162,14.9517 18.9162,13.285 19.5,10.5C 21.698,9.93287 24.0314,9.93287 26.5,10.5 Z"/></g>
<g><path style="opacity:1" fill="#3c4e75" d="M 35.5,12.5 C 33.847,12.6596 32.5137,13.3263 31.5,14.5C 29.8235,15.1834 29.1568,16.5168 29.5,18.5C 28.8333,18.1667 28.1667,17.8333 27.5,17.5C 27.5,16.5 27.5,15.5 27.5,14.5C 27.5,13.1667 27.5,11.8333 27.5,10.5C 28.5832,10.5394 29.5832,10.8728 30.5,11.5C 30.4895,10.5585 30.9895,9.89188 32,9.5C 33.9497,9.70743 35.1164,10.7074 35.5,12.5 Z"/></g>
<g><path style="opacity:1" fill="#878379" d="M 35.5,12.5 C 35.8333,12.5 36.1667,12.5 36.5,12.5C 39.7954,13.414 42.7954,14.7474 45.5,16.5C 44.1667,16.5 42.8333,16.5 41.5,16.5C 39.0872,14.9493 36.4206,14.2826 33.5,14.5C 32.8333,14.5 32.1667,14.5 31.5,14.5C 32.5137,13.3263 33.847,12.6596 35.5,12.5 Z"/></g>
<g><path style="opacity:1" fill="#3a4f7f" d="M 39.5,6.5 C 39.7952,7.89668 40.1286,9.39668 40.5,11C 42.1012,11.2734 43.6012,11.7734 45,12.5C 45.2784,11.5842 45.7784,10.9175 46.5,10.5C 46.6941,13.3297 47.3608,15.9963 48.5,18.5C 48.5,19.1667 48.1667,19.5 47.5,19.5C 46.8333,18.5 46.1667,17.5 45.5,16.5C 42.7954,14.7474 39.7954,13.414 36.5,12.5C 36.8333,11.1667 37.1667,9.83333 37.5,8.5C 38.5,8.16667 39.1667,7.5 39.5,6.5 Z"/></g>
<g><path style="opacity:0.79" fill="#111910" d="M 52.5,8.5 C 55.4707,10.4426 57.4707,13.1092 58.5,16.5C 57.2502,16.4226 56.4169,15.756 56,14.5C 55.3333,15.1667 54.6667,15.8333 54,16.5C 52.9914,14.9751 52.4914,13.3084 52.5,11.5C 52.5,10.5 52.5,9.5 52.5,8.5 Z"/></g>
<g><path style="opacity:1" fill="#334770" d="M 52.5,8.5 C 52.5,9.5 52.5,10.5 52.5,11.5C 50.7073,13.4261 49.7073,15.7594 49.5,18.5C 49.1667,18.5 48.8333,18.5 48.5,18.5C 47.3608,15.9963 46.6941,13.3297 46.5,10.5C 47.1667,10.5 47.5,10.1667 47.5,9.5C 49.1172,8.962 50.7839,8.62867 52.5,8.5 Z"/></g>
<g><path style="opacity:1" fill="#373938" d="M 9.5,11.5 C 9.83333,12.1667 10.1667,12.8333 10.5,13.5C 9.90326,13.7352 9.56993,14.2352 9.5,15C 12.8314,19.7595 13.1647,24.5928 10.5,29.5C 8.05035,29.702 5.71702,29.3686 3.5,28.5C 3.5,26.5 3.5,24.5 3.5,22.5C 4.28997,23.6085 4.78997,24.9419 5,26.5C 5.49001,25.2068 5.65668,23.8734 5.5,22.5C 6.5,22.5 7.5,22.5 8.5,22.5C 8.54315,18.1074 8.04315,17.7741 7,21.5C 6.50999,20.2068 6.34332,18.8734 6.5,17.5C 6.03108,14.6067 7.03108,12.6067 9.5,11.5 Z"/></g>
<g><path style="opacity:1" fill="#232e21" d="M 52.5,11.5 C 52.4914,13.3084 52.9914,14.9751 54,16.5C 54.6667,15.8333 55.3333,15.1667 56,14.5C 56.4169,15.756 57.2502,16.4226 58.5,16.5C 59.4408,18.0495 60.1075,19.7162 60.5,21.5C 59.1264,21.2079 57.7931,20.8746 56.5,20.5C 54.5615,18.8372 52.2282,18.1706 49.5,18.5C 49.7073,15.7594 50.7073,13.4261 52.5,11.5 Z"/></g>
<g><path style="opacity:1" fill="#565c57" d="M 31.5,14.5 C 32.1667,14.5 32.8333,14.5 33.5,14.5C 34.0899,15.766 34.5899,17.0993 35,18.5C 35.3333,17.8333 35.6667,17.1667 36,16.5C 36.765,18.0657 36.5983,19.3991 35.5,20.5C 34.791,19.596 33.791,19.2627 32.5,19.5C 32.5,20.8333 32.5,22.1667 32.5,23.5C 31.6909,21.7078 31.1909,19.7078 31,17.5C 30.3659,23.1342 29.8659,23.4675 29.5,18.5C 29.1568,16.5168 29.8235,15.1834 31.5,14.5 Z"/></g>
<g><path style="opacity:1" fill="#42413e" d="M 18.5,10.5 C 18.8333,10.5 19.1667,10.5 19.5,10.5C 18.9162,13.285 19.9162,14.9517 22.5,15.5C 22.5,16.5 22.5,17.5 22.5,18.5C 20.6921,19.9179 20.0254,21.9179 20.5,24.5C 20.1667,24.5 19.8333,24.5 19.5,24.5C 19.4445,21.6073 19.1111,18.6073 18.5,15.5C 16.5914,14.6518 14.5914,14.3184 12.5,14.5C 13.2613,13.6091 14.2613,12.9424 15.5,12.5C 17.6198,13.8715 18.6198,13.2048 18.5,10.5 Z"/></g>
<g><path style="opacity:1" fill="#454745" d="M 27.5,14.5 C 27.5,15.5 27.5,16.5 27.5,17.5C 27.5,18.1667 27.1667,18.5 26.5,18.5C 25.2794,19.0283 24.1127,19.695 23,20.5C 22.5357,19.9056 22.369,19.2389 22.5,18.5C 22.5,17.5 22.5,16.5 22.5,15.5C 23.8287,12.3055 25.4954,11.9722 27.5,14.5 Z"/></g>
<g><path style="opacity:1" fill="#2d2e2d" d="M 41.5,16.5 C 42.8333,16.5 44.1667,16.5 45.5,16.5C 46.1667,17.5 46.8333,18.5 47.5,19.5C 47.6495,20.552 47.4828,21.552 47,22.5C 45.3005,21.5939 43.4672,21.2606 41.5,21.5C 41.5,20.5 41.5,19.5 41.5,18.5C 41.5,17.8333 41.5,17.1667 41.5,16.5 Z"/></g>
<g><path style="opacity:1" fill="#444b49" d="M 33.5,14.5 C 36.4206,14.2826 39.0872,14.9493 41.5,16.5C 41.5,17.1667 41.5,17.8333 41.5,18.5C 39.3953,21.2848 39.3953,23.9514 41.5,26.5C 41.4348,28.6957 40.7681,30.6957 39.5,32.5C 38.0052,31.2947 36.6719,31.2947 35.5,32.5C 33.3441,34.1177 31.6774,33.7843 30.5,31.5C 31.1667,30.8333 31.8333,30.1667 32.5,29.5C 34.4725,26.9164 35.4725,23.9164 35.5,20.5C 36.5983,19.3991 36.765,18.0657 36,16.5C 35.6667,17.1667 35.3333,17.8333 35,18.5C 34.5899,17.0993 34.0899,15.766 33.5,14.5 Z"/></g>
<g><path style="opacity:1" fill="#323130" d="M 4.5,13.5 C 5.16667,14.8333 5.83333,16.1667 6.5,17.5C 6.34332,18.8734 6.50999,20.2068 7,21.5C 8.04315,17.7741 8.54315,18.1074 8.5,22.5C 7.5,22.5 6.5,22.5 5.5,22.5C 5.65668,23.8734 5.49001,25.2068 5,26.5C 4.78997,24.9419 4.28997,23.6085 3.5,22.5C 3.96286,19.5176 4.29619,16.5176 4.5,13.5 Z"/></g>
<g><path style="opacity:1" fill="#5f5d5a" d="M 10.5,13.5 C 11.2216,13.9175 11.7216,14.5842 12,15.5C 12.3988,15.2716 12.5654,14.9382 12.5,14.5C 14.5914,14.3184 16.5914,14.6518 18.5,15.5C 19.1111,18.6073 19.4445,21.6073 19.5,24.5C 17.7175,23.573 16.0508,22.7397 14.5,22C 13.565,24.3806 13.2317,26.8806 13.5,29.5C 12.5,29.5 11.5,29.5 10.5,29.5C 13.1647,24.5928 12.8314,19.7595 9.5,15C 9.56993,14.2352 9.90326,13.7352 10.5,13.5 Z"/></g>
<g><path style="opacity:1" fill="#dfccb7" d="M 13.5,16.5 C 14.5,16.5 15.5,16.5 16.5,16.5C 16.5,17.5 16.5,18.5 16.5,19.5C 15.5,19.5 14.5,19.5 13.5,19.5C 13.5,18.5 13.5,17.5 13.5,16.5 Z"/></g>
<g><path style="opacity:1" fill="#b9c8c0" d="M 27.5,17.5 C 28.1667,17.8333 28.8333,18.1667 29.5,18.5C 29.8659,23.4675 30.3659,23.1342 31,17.5C 31.1909,19.7078 31.6909,21.7078 32.5,23.5C 31.8106,24.7736 30.9772,24.7736 30,23.5C 29.4585,26.0825 30.2918,28.0825 32.5,29.5C 31.8333,30.1667 31.1667,30.8333 30.5,31.5C 29.3412,30.2597 28.3412,28.9264 27.5,27.5C 27.0371,24.5176 26.7038,21.5176 26.5,18.5C 27.1667,18.5 27.5,18.1667 27.5,17.5 Z"/></g>
<g><path style="opacity:1" fill="#2d2f24" d="M 55.5,20.5 C 54.8836,22.4171 53.5503,23.5838 51.5,24C 52.2524,24.6708 52.5858,25.5041 52.5,26.5C 50.9731,26.427 49.9731,27.0937 49.5,28.5C 48.5084,28.6716 47.8417,28.3382 47.5,27.5C 49.0427,24.9603 50.0427,22.4603 50.5,20C 52.1075,20.0187 53.7741,20.1854 55.5,20.5 Z"/></g>
<g><path style="opacity:1" fill="#616a68" d="M 22.5,18.5 C 22.369,19.2389 22.5357,19.9056 23,20.5C 24.1127,19.695 25.2794,19.0283 26.5,18.5C 26.7038,21.5176 27.0371,24.5176 27.5,27.5C 26.4168,27.5394 25.4168,27.8728 24.5,28.5C 23.7022,26.9223 23.2022,25.2556 23,23.5C 22.3292,24.2524 21.4959,24.5858 20.5,24.5C 20.0254,21.9179 20.6921,19.9179 22.5,18.5 Z"/></g>
<g><path style="opacity:1" fill="#455fa5" d="M 2.5,17.5 C 2.45327,20.5682 1.95327,23.5682 1,26.5C 0.617425,25.944 0.117425,25.6107 -0.5,25.5C -0.5,24.5 -0.5,23.5 -0.5,22.5C 0.312714,20.7392 1.31271,19.0725 2.5,17.5 Z"/></g>
<g><path style="opacity:1" fill="#3e4443" d="M 19.5,24.5 C 19.8333,24.5 20.1667,24.5 20.5,24.5C 20.9528,25.4584 21.6195,26.2917 22.5,27C 20.3808,27.3418 20.0474,28.1751 21.5,29.5C 19.0428,29.7923 16.3761,29.7923 13.5,29.5C 13.2317,26.8806 13.565,24.3806 14.5,22C 16.0508,22.7397 17.7175,23.573 19.5,24.5 Z"/></g>
<g><path style="opacity:1" fill="#465151" d="M 27.5,27.5 C 28.3412,28.9264 29.3412,30.2597 30.5,31.5C 28.602,30.9035 26.9354,30.9035 25.5,31.5C 25.1667,31.5 24.8333,31.5 24.5,31.5C 23.7095,30.5987 22.7095,29.9321 21.5,29.5C 20.0474,28.1751 20.3808,27.3418 22.5,27C 21.6195,26.2917 20.9528,25.4584 20.5,24.5C 21.4959,24.5858 22.3292,24.2524 23,23.5C 23.2022,25.2556 23.7022,26.9223 24.5,28.5C 25.4168,27.8728 26.4168,27.5394 27.5,27.5 Z"/></g>
<g><path style="opacity:1" fill="#454639" d="M 48.5,18.5 C 48.8333,18.5 49.1667,18.5 49.5,18.5C 52.2282,18.1706 54.5615,18.8372 56.5,20.5C 56.1667,20.5 55.8333,20.5 55.5,20.5C 53.7741,20.1854 52.1075,20.0187 50.5,20C 50.0427,22.4603 49.0427,24.9603 47.5,27.5C 46.8407,24.5918 46.0074,24.2584 45,26.5C 44.3028,24.4156 43.1361,22.7489 41.5,21.5C 43.4672,21.2606 45.3005,21.5939 47,22.5C 47.4828,21.552 47.6495,20.552 47.5,19.5C 48.1667,19.5 48.5,19.1667 48.5,18.5 Z"/></g>
<g><path style="opacity:1" fill="#d7e4db" d="M 35.5,20.5 C 35.4725,23.9164 34.4725,26.9164 32.5,29.5C 30.2918,28.0825 29.4585,26.0825 30,23.5C 30.9772,24.7736 31.8106,24.7736 32.5,23.5C 32.5,22.1667 32.5,20.8333 32.5,19.5C 33.791,19.2627 34.791,19.596 35.5,20.5 Z"/></g>
<g><path style="opacity:1" fill="#d8cba3" d="M 52.5,26.5 C 53.8333,27.5 53.8333,28.5 52.5,29.5C 51.2719,30.3065 50.2719,31.3065 49.5,32.5C 48.5946,31.0357 48.5946,29.7024 49.5,28.5C 49.9731,27.0937 50.9731,26.427 52.5,26.5 Z"/></g>
<g><path style="opacity:1" fill="#262424" d="M 4.5,13.5 C 4.29619,16.5176 3.96286,19.5176 3.5,22.5C 3.5,24.5 3.5,26.5 3.5,28.5C 2.52843,30.4931 1.19509,30.8264 -0.5,29.5C -0.5,28.1667 -0.5,26.8333 -0.5,25.5C 0.117425,25.6107 0.617425,25.944 1,26.5C 1.95327,23.5682 2.45327,20.5682 2.5,17.5C 2.22911,15.6203 2.89578,14.287 4.5,13.5 Z"/></g>
<g><path style="opacity:1" fill="#1e1e17" d="M 55.5,20.5 C 55.8333,20.5 56.1667,20.5 56.5,20.5C 57.7931,20.8746 59.1264,21.2079 60.5,21.5C 60.5,22.1667 60.8333,22.5 61.5,22.5C 61.5,26.5 61.5,30.5 61.5,34.5C 58.5,34.5 55.5,34.5 52.5,34.5C 52.5,33.5 52.5,32.5 52.5,31.5C 52.5,30.8333 52.5,30.1667 52.5,29.5C 53.8333,28.5 53.8333,27.5 52.5,26.5C 52.5858,25.5041 52.2524,24.6708 51.5,24C 53.5503,23.5838 54.8836,22.4171 55.5,20.5 Z"/></g>
<g><path style="opacity:1" fill="#1f1517" d="M 3.5,28.5 C 5.71702,29.3686 8.05035,29.702 10.5,29.5C 10.5,29.8333 10.5,30.1667 10.5,30.5C 9.16667,30.5 7.83333,30.5 6.5,30.5C 4.69161,30.4914 3.02494,30.9914 1.5,32C 1.83333,32.3333 2.16667,32.6667 2.5,33C 1.24402,33.4169 0.57735,34.2502 0.5,35.5C 0.5,36.5 0.5,37.5 0.5,38.5C 0.166667,38.5 -0.166667,38.5 -0.5,38.5C -0.5,35.5 -0.5,32.5 -0.5,29.5C 1.19509,30.8264 2.52843,30.4931 3.5,28.5 Z"/></g>
<g><path style="opacity:1" fill="#241616" d="M 6.5,30.5 C 7.39836,31.1577 8.39836,31.8243 9.5,32.5C 9.13727,33.1835 8.80393,33.8501 8.5,34.5C 5.92083,34.0833 3.75417,34.75 2,36.5C 1.61742,35.944 1.11742,35.6107 0.5,35.5C 0.57735,34.2502 1.24402,33.4169 2.5,33C 2.16667,32.6667 1.83333,32.3333 1.5,32C 3.02494,30.9914 4.69161,30.4914 6.5,30.5 Z"/></g>
<g><path style="opacity:1" fill="#2d2120" d="M 6.5,30.5 C 7.83333,30.5 9.16667,30.5 10.5,30.5C 11.5,30.5 12.5,30.5 13.5,30.5C 13.281,31.675 13.6143,32.675 14.5,33.5C 16.7466,34.3742 19.0799,34.7076 21.5,34.5C 21.5,34.8333 21.5,35.1667 21.5,35.5C 18.5,35.5 15.5,35.5 12.5,35.5C 11.4324,34.5655 10.099,34.2322 8.5,34.5C 8.80393,33.8501 9.13727,33.1835 9.5,32.5C 8.39836,31.8243 7.39836,31.1577 6.5,30.5 Z"/></g>
<g><path style="opacity:1" fill="#55544b" d="M 41.5,18.5 C 41.5,19.5 41.5,20.5 41.5,21.5C 43.1361,22.7489 44.3028,24.4156 45,26.5C 46.0074,24.2584 46.8407,24.5918 47.5,27.5C 47.8417,28.3382 48.5084,28.6716 49.5,28.5C 48.5946,29.7024 48.5946,31.0357 49.5,32.5C 48.1467,30.807 46.48,29.4736 44.5,28.5C 43.7095,27.5987 42.7095,26.9321 41.5,26.5C 39.3953,23.9514 39.3953,21.2848 41.5,18.5 Z"/></g>
<g><path style="opacity:1" fill="#332b2a" d="M 10.5,30.5 C 10.5,30.1667 10.5,29.8333 10.5,29.5C 11.5,29.5 12.5,29.5 13.5,29.5C 16.3761,29.7923 19.0428,29.7923 21.5,29.5C 22.7095,29.9321 23.7095,30.5987 24.5,31.5C 24.5,31.8333 24.5,32.1667 24.5,32.5C 23.5,33.1667 22.5,33.8333 21.5,34.5C 19.0799,34.7076 16.7466,34.3742 14.5,33.5C 13.6143,32.675 13.281,31.675 13.5,30.5C 12.5,30.5 11.5,30.5 10.5,30.5 Z"/></g>
<g><path style="opacity:1" fill="#2e2b25" d="M 41.5,26.5 C 42.7095,26.9321 43.7095,27.5987 44.5,28.5C 42.6921,29.9179 42.0254,31.9179 42.5,34.5C 45.1667,34.5 47.8333,34.5 50.5,34.5C 51.1667,35.1667 51.8333,35.8333 52.5,36.5C 46.8454,35.7678 41.1787,35.1011 35.5,34.5C 35.5,33.8333 35.5,33.1667 35.5,32.5C 36.6719,31.2947 38.0052,31.2947 39.5,32.5C 40.7681,30.6957 41.4348,28.6957 41.5,26.5 Z"/></g>
<g><path style="opacity:1" fill="#3f4335" d="M 44.5,28.5 C 46.48,29.4736 48.1467,30.807 49.5,32.5C 50.2719,31.3065 51.2719,30.3065 52.5,29.5C 52.5,30.1667 52.5,30.8333 52.5,31.5C 51.8333,32.5 51.1667,33.5 50.5,34.5C 47.8333,34.5 45.1667,34.5 42.5,34.5C 42.0254,31.9179 42.6921,29.9179 44.5,28.5 Z"/></g>
<g><path style="opacity:1" fill="#221411" d="M 8.5,34.5 C 10.099,34.2322 11.4324,34.5655 12.5,35.5C 10.076,35.1924 7.74269,35.5258 5.5,36.5C 8.07393,38.0243 10.7406,39.3576 13.5,40.5C 13.1667,41.1667 12.8333,41.8333 12.5,42.5C 12.5,42.8333 12.5,43.1667 12.5,43.5C 10.3173,39.9728 7.31732,38.9728 3.5,40.5C 2.5,39.8333 1.5,39.1667 0.5,38.5C 0.5,37.5 0.5,36.5 0.5,35.5C 1.11742,35.6107 1.61742,35.944 2,36.5C 3.75417,34.75 5.92083,34.0833 8.5,34.5 Z"/></g>
<g><path style="opacity:1" fill="#925d53" d="M 25.5,31.5 C 26.9354,30.9035 28.602,30.9035 30.5,31.5C 31.6774,33.7843 33.3441,34.1177 35.5,32.5C 35.5,33.1667 35.5,33.8333 35.5,34.5C 34.9348,36.42 33.9348,38.0867 32.5,39.5C 31.3167,35.9733 28.9833,33.3067 25.5,31.5 Z"/></g>
<g><path style="opacity:1" fill="#1f1711" d="M 52.5,31.5 C 52.5,32.5 52.5,33.5 52.5,34.5C 55.5,34.5 58.5,34.5 61.5,34.5C 61.5,35.8333 61.5,37.1667 61.5,38.5C 61.1667,38.5 60.8333,38.5 60.5,38.5C 57.9471,37.7451 55.2804,37.0784 52.5,36.5C 51.8333,35.8333 51.1667,35.1667 50.5,34.5C 51.1667,33.5 51.8333,32.5 52.5,31.5 Z"/></g>
<g><path style="opacity:1" fill="#9d6150" d="M 24.5,32.5 C 24.5,32.1667 24.5,31.8333 24.5,31.5C 24.8333,31.5 25.1667,31.5 25.5,31.5C 28.9833,33.3067 31.3167,35.9733 32.5,39.5C 32.5,40.1667 32.5,40.8333 32.5,41.5C 31.609,40.8902 30.609,40.5569 29.5,40.5C 29.762,39.0222 29.4287,37.6888 28.5,36.5C 26.603,35.6319 25.2696,34.2986 24.5,32.5 Z"/></g>
<g><path style="opacity:1" fill="#1e180f" d="M 12.5,35.5 C 15.5,35.5 18.5,35.5 21.5,35.5C 21.5,36.8333 21.5,38.1667 21.5,39.5C 18.897,39.4594 16.2303,39.7927 13.5,40.5C 10.7406,39.3576 8.07393,38.0243 5.5,36.5C 7.74269,35.5258 10.076,35.1924 12.5,35.5 Z"/></g>
<g><path style="opacity:1" fill="#9c5b45" d="M 24.5,32.5 C 25.2696,34.2986 26.603,35.6319 28.5,36.5C 29.4287,37.6888 29.762,39.0222 29.5,40.5C 26.9039,39.7347 24.2372,39.4013 21.5,39.5C 21.5,38.1667 21.5,36.8333 21.5,35.5C 21.5,35.1667 21.5,34.8333 21.5,34.5C 22.5,33.8333 23.5,33.1667 24.5,32.5 Z"/></g>
<g><path style="opacity:1" fill="#16180d" d="M 35.5,34.5 C 41.1787,35.1011 46.8454,35.7678 52.5,36.5C 55.2804,37.0784 57.9471,37.7451 60.5,38.5C 53.7861,39.7047 47.1195,40.3714 40.5,40.5C 39.2505,39.2225 37.7505,38.2225 36,37.5C 35.5172,36.552 35.3505,35.552 35.5,34.5 Z"/></g>
<g><path style="opacity:1" fill="#1c180b" d="M 60.5,38.5 C 60.5979,40.5529 59.9313,42.2196 58.5,43.5C 58.5858,42.5041 58.2524,41.6708 57.5,41C 55.8659,40.5065 54.1992,40.3398 52.5,40.5C 52.5,41.5 52.5,42.5 52.5,43.5C 50.0535,42.775 47.5535,42.1083 45,41.5C 43.9701,41.8361 43.4701,42.5028 43.5,43.5C 43.5654,43.9382 43.3988,44.2716 43,44.5C 42.1482,43.4293 41.3149,42.4293 40.5,41.5C 40.5,41.1667 40.5,40.8333 40.5,40.5C 47.1195,40.3714 53.7861,39.7047 60.5,38.5 Z"/></g>
<g><path style="opacity:1" fill="#a36e63" d="M 21.5,39.5 C 24.2372,39.4013 26.9039,39.7347 29.5,40.5C 30.609,40.5569 31.609,40.8902 32.5,41.5C 32.5,42.1667 32.8333,42.5 33.5,42.5C 33.5,43.1667 33.1667,43.5 32.5,43.5C 29.7413,41.7069 26.7413,41.2069 23.5,42C 24.7375,42.2321 25.7375,42.7321 26.5,43.5C 23.0489,43.4618 19.7156,42.7951 16.5,41.5C 15.1508,41.8457 13.8175,42.179 12.5,42.5C 12.8333,41.8333 13.1667,41.1667 13.5,40.5C 16.2303,39.7927 18.897,39.4594 21.5,39.5 Z"/></g>
<g><path style="opacity:1" fill="#1e0e0c" d="M 12.5,43.5 C 13.1667,43.5 13.8333,43.5 14.5,43.5C 13.7095,44.4013 12.7095,45.0679 11.5,45.5C 10.5,46.1667 9.5,46.8333 8.5,47.5C 7.36465,45.7868 5.69798,45.1201 3.5,45.5C 2.92855,43.64 2.92855,41.9733 3.5,40.5C 7.31732,38.9728 10.3173,39.9728 12.5,43.5 Z"/></g>
<g><path style="opacity:1" fill="#a46b58" d="M 32.5,43.5 C 31.3955,45.1533 31.2288,46.82 32,48.5C 30.9609,47.2899 29.7942,46.2899 28.5,45.5C 28.1667,44.5 27.5,43.8333 26.5,43.5C 25.7375,42.7321 24.7375,42.2321 23.5,42C 26.7413,41.2069 29.7413,41.7069 32.5,43.5 Z"/></g>
<g><path style="opacity:1" fill="#221a15" d="M 35.5,34.5 C 35.3505,35.552 35.5172,36.552 36,37.5C 37.7505,38.2225 39.2505,39.2225 40.5,40.5C 40.5,40.8333 40.5,41.1667 40.5,41.5C 38.597,41.7959 36.9303,42.4625 35.5,43.5C 34.8333,43.1667 34.1667,42.8333 33.5,42.5C 32.8333,42.5 32.5,42.1667 32.5,41.5C 32.5,40.8333 32.5,40.1667 32.5,39.5C 33.9348,38.0867 34.9348,36.42 35.5,34.5 Z"/></g>
<g><path style="opacity:1" fill="#181206" d="M 58.5,43.5 C 58.5,44.1667 58.5,44.8333 58.5,45.5C 56.6017,44.2655 54.935,44.5989 53.5,46.5C 52.8902,45.609 52.5569,44.609 52.5,43.5C 52.5,42.5 52.5,41.5 52.5,40.5C 54.1992,40.3398 55.8659,40.5065 57.5,41C 58.2524,41.6708 58.5858,42.5041 58.5,43.5 Z"/></g>
<g><path style="opacity:1" fill="#a06758" d="M 26.5,43.5 C 27.5,43.8333 28.1667,44.5 28.5,45.5C 28.5,46.8333 28.5,48.1667 28.5,49.5C 23.9117,47.5451 19.2451,45.5451 14.5,43.5C 13.8333,43.5 13.1667,43.5 12.5,43.5C 12.5,43.1667 12.5,42.8333 12.5,42.5C 13.8175,42.179 15.1508,41.8457 16.5,41.5C 19.7156,42.7951 23.0489,43.4618 26.5,43.5 Z"/></g>
<g><path style="opacity:1" fill="#150f03" d="M 44.5,44.5 C 47.1625,46.2681 50.1625,46.9347 53.5,46.5C 54.935,44.5989 56.6017,44.2655 58.5,45.5C 57.8333,46.5 57.1667,47.5 56.5,48.5C 54.9319,48.3592 53.2652,48.0258 51.5,47.5C 49.0124,49.1584 46.5124,50.8251 44,52.5C 43.7935,51.095 42.6268,50.095 40.5,49.5C 42.5311,48.4613 43.8645,46.7946 44.5,44.5 Z"/></g>
<g><path style="opacity:1" fill="#141104" d="M 52.5,43.5 C 52.5569,44.609 52.8902,45.609 53.5,46.5C 50.1625,46.9347 47.1625,46.2681 44.5,44.5C 44.5,43.8333 44.1667,43.5 43.5,43.5C 43.4701,42.5028 43.9701,41.8361 45,41.5C 47.5535,42.1083 50.0535,42.775 52.5,43.5 Z"/></g>
<g><path style="opacity:1" fill="#170e11" d="M 0.5,38.5 C 1.5,39.1667 2.5,39.8333 3.5,40.5C 2.92855,41.9733 2.92855,43.64 3.5,45.5C 5.69798,45.1201 7.36465,45.7868 8.5,47.5C 7.5,48.1667 6.5,48.8333 5.5,49.5C 2.88717,46.3552 1.2205,42.6886 0.5,38.5 Z"/></g>
<g><path style="opacity:1" fill="#945c48" d="M 14.5,43.5 C 19.2451,45.5451 23.9117,47.5451 28.5,49.5C 28.1667,50.1667 27.8333,50.8333 27.5,51.5C 26.1851,50.5244 24.8518,49.5244 23.5,48.5C 22.3554,49.7757 22.3554,51.109 23.5,52.5C 22.3112,53.4287 20.9778,53.762 19.5,53.5C 19.3832,55.4835 20.0499,57.1502 21.5,58.5C 21.0431,59.2975 20.3764,59.6309 19.5,59.5C 14.9777,58.4114 11.311,56.078 8.5,52.5C 10.2789,50.6565 12.6122,49.9898 15.5,50.5C 15.719,49.325 15.3857,48.325 14.5,47.5C 13.2613,47.0576 12.2613,46.3909 11.5,45.5C 12.7095,45.0679 13.7095,44.4013 14.5,43.5 Z"/></g>
<g><path style="opacity:1" fill="#1b110a" d="M 40.5,41.5 C 41.3149,42.4293 42.1482,43.4293 43,44.5C 43.3988,44.2716 43.5654,43.9382 43.5,43.5C 44.1667,43.5 44.5,43.8333 44.5,44.5C 43.8645,46.7946 42.5311,48.4613 40.5,49.5C 39.0256,50.4363 38.0256,51.7697 37.5,53.5C 37.1667,53.5 36.8333,53.5 36.5,53.5C 36.5,52.8333 36.5,52.1667 36.5,51.5C 37.767,48.7835 37.4337,46.1168 35.5,43.5C 36.9303,42.4625 38.597,41.7959 40.5,41.5 Z"/></g>
<g><path style="opacity:1" fill="#8c5e56" d="M 11.5,45.5 C 12.2613,46.3909 13.2613,47.0576 14.5,47.5C 15.3857,48.325 15.719,49.325 15.5,50.5C 12.6122,49.9898 10.2789,50.6565 8.5,52.5C 7.16667,51.8333 6.16667,50.8333 5.5,49.5C 6.5,48.8333 7.5,48.1667 8.5,47.5C 9.5,46.8333 10.5,46.1667 11.5,45.5 Z"/></g>
<g><path style="opacity:0.906" fill="#130a03" d="M 56.5,48.5 C 53.7099,52.6283 50.0432,55.6283 45.5,57.5C 43.6885,55.0166 41.8552,55.0166 40,57.5C 38.5187,56.5291 37.6854,55.1958 37.5,53.5C 38.0256,51.7697 39.0256,50.4363 40.5,49.5C 42.6268,50.095 43.7935,51.095 44,52.5C 46.5124,50.8251 49.0124,49.1584 51.5,47.5C 53.2652,48.0258 54.9319,48.3592 56.5,48.5 Z"/></g>
<g><path style="opacity:1" fill="#7b5045" d="M 33.5,42.5 C 34.1667,42.8333 34.8333,43.1667 35.5,43.5C 37.4337,46.1168 37.767,48.7835 36.5,51.5C 35.5416,51.0472 34.7083,50.3805 34,49.5C 32.7772,50.357 31.6106,51.357 30.5,52.5C 30.1667,52.5 29.8333,52.5 29.5,52.5C 28.8333,52.1667 28.1667,51.8333 27.5,51.5C 27.8333,50.8333 28.1667,50.1667 28.5,49.5C 28.5,48.1667 28.5,46.8333 28.5,45.5C 29.7942,46.2899 30.9609,47.2899 32,48.5C 31.2288,46.82 31.3955,45.1533 32.5,43.5C 33.1667,43.5 33.5,43.1667 33.5,42.5 Z"/></g>
<g><path style="opacity:1" fill="#7c4d3d" d="M 27.5,51.5 C 28.1667,51.8333 28.8333,52.1667 29.5,52.5C 29.2914,53.9217 28.7914,55.255 28,56.5C 27.3848,54.8839 26.3848,53.5505 25,52.5C 24.5538,55.3327 25.0538,57.9994 26.5,60.5C 26.5,60.8333 26.5,61.1667 26.5,61.5C 25.1667,61.5 23.8333,61.5 22.5,61.5C 21.5,60.8333 20.5,60.1667 19.5,59.5C 20.3764,59.6309 21.0431,59.2975 21.5,58.5C 20.0499,57.1502 19.3832,55.4835 19.5,53.5C 20.9778,53.762 22.3112,53.4287 23.5,52.5C 22.3554,51.109 22.3554,49.7757 23.5,48.5C 24.8518,49.5244 26.1851,50.5244 27.5,51.5 Z"/></g>
<g><path style="opacity:1" fill="#523631" d="M 36.5,51.5 C 36.5,52.1667 36.5,52.8333 36.5,53.5C 35.6618,53.8417 35.3284,54.5084 35.5,55.5C 34.603,56.5981 33.7697,56.5981 33,55.5C 32.4666,57.9386 31.3,58.6052 29.5,57.5C 30.1534,56.1932 30.8201,54.8599 31.5,53.5C 31.3764,52.8933 31.0431,52.56 30.5,52.5C 31.6106,51.357 32.7772,50.357 34,49.5C 34.7083,50.3805 35.5416,51.0472 36.5,51.5 Z"/></g>
<g><path style="opacity:1" fill="#663f33" d="M 29.5,52.5 C 29.8333,52.5 30.1667,52.5 30.5,52.5C 31.0431,52.56 31.3764,52.8933 31.5,53.5C 30.8201,54.8599 30.1534,56.1932 29.5,57.5C 29.5,58.5 29.5,59.5 29.5,60.5C 28.5,60.5 27.5,60.5 26.5,60.5C 25.0538,57.9994 24.5538,55.3327 25,52.5C 26.3848,53.5505 27.3848,54.8839 28,56.5C 28.7914,55.255 29.2914,53.9217 29.5,52.5 Z"/></g>
<g><path style="opacity:1" fill="#0c0503" d="M 36.5,53.5 C 36.8333,53.5 37.1667,53.5 37.5,53.5C 37.6854,55.1958 38.5187,56.5291 40,57.5C 41.8552,55.0166 43.6885,55.0166 45.5,57.5C 43.2974,59.1002 40.964,60.4335 38.5,61.5C 38.1667,61.5 37.8333,61.5 37.5,61.5C 36.7703,59.955 35.437,59.1216 33.5,59C 34.8333,58.3333 36.1667,57.6667 37.5,57C 36.5842,56.7216 35.9175,56.2216 35.5,55.5C 35.3284,54.5084 35.6618,53.8417 36.5,53.5 Z"/></g>
<g><path style="opacity:1" fill="#1f1718" d="M 35.5,55.5 C 35.9175,56.2216 36.5842,56.7216 37.5,57C 36.1667,57.6667 34.8333,58.3333 33.5,59C 35.437,59.1216 36.7703,59.955 37.5,61.5C 33.8333,61.5 30.1667,61.5 26.5,61.5C 26.5,61.1667 26.5,60.8333 26.5,60.5C 27.5,60.5 28.5,60.5 29.5,60.5C 29.5,59.5 29.5,58.5 29.5,57.5C 31.3,58.6052 32.4666,57.9386 33,55.5C 33.7697,56.5981 34.603,56.5981 35.5,55.5 Z"/></g>
</svg>
